<?xml version="1.0" standalone="no"?><!DOCTYPE svg PUBLIC "-//W3C//DTD SVG 1.1//EN" "http://www.w3.org/Graphics/SVG/1.1/DTD/svg11.dtd">
<svg t="1623905626248" class="icon" viewBox="0 0 1024 1024" version="1.1"
  xmlns="http://www.w3.org/2000/svg" p-id="2469"
  xmlns:xlink="http://www.w3.org/1999/xlink" width="200" height="200">
  <defs>
  </defs>
  <path d="M432.592 192.432l-195.84 190.08h681.04a16 16 0 0 1 16 16v32a16 16 0 0 1-16 16H138.048a24 24 0 0 1-16.704-41.248l266.56-258.64a16 16 0 0 1 22.592 0.304l22.352 22.88a16 16 0 0 1-0.256 22.624zM582.384 827.648l195.84-190.048H97.168a16 16 0 0 1-16-16v-32a16 16 0 0 1 16-16h779.744a24 24 0 0 1 16.704 41.232l-266.56 258.64a16 16 0 0 1-22.576-0.32l-22.368-22.88a16 16 0 0 1 0.272-22.624z" p-id="2470"></path>
</svg>