<?xml version="1.0" standalone="no"?><!DOCTYPE svg PUBLIC "-//W3C//DTD SVG 1.1//EN" "http://www.w3.org/Graphics/SVG/1.1/DTD/svg11.dtd"><svg t="1620993274759" class="icon" viewBox="0 0 1024 1024" version="1.1" xmlns="http://www.w3.org/2000/svg" p-id="2772" xmlns:xlink="http://www.w3.org/1999/xlink" width="200" height="200"><defs><style type="text/css"></style></defs><path d="M1024 352c0-17.088-14.912-32-32-32l-55.488-46.912c-10.624-10.688-23.424-17.088-36.224-23.488-12.8-8.512-25.6-12.8-40.576-14.912l-12.8-6.4c-4.224-6.4-8.512-12.8-17.024-17.088L352 27.712 309.312 10.688c-2.112 0-4.224 0-4.224-2.176l-14.976-6.4C283.712 0 277.312 0 270.912 0 260.288 0 249.6 2.112 243.2 10.688L72.512 213.312H25.6c-14.912 0-25.6 12.8-25.6 25.6v130.176c0 12.8 10.688 25.6 25.6 25.6a22.4 22.4 0 0 0 19.2 10.624h130.112c12.8 0 21.376-8.512 23.488-19.2h46.912V851.2h-64a34.24 34.24 0 0 0-23.424 10.688c-2.176 2.112-4.288 4.224-4.288 6.4l-61.888 108.8v2.112s0 2.112-2.112 2.112v17.088c0 2.112 0 4.288 2.112 6.4 2.176 6.4 6.4 10.688 12.8 14.912 2.176 4.288 8.576 4.288 14.976 4.288h627.2a32.064 32.064 0 0 0 21.312-29.888c0-17.024-14.912-32-32-32l-119.488-102.4c-6.4-6.4-14.912-8.512-25.6-6.4H460.8V384H832v2.112c-2.112 4.288-4.288 8.576-4.288 14.976v179.2c0 17.024 14.976 32 32 32h8.576c2.112 0 4.224 0 6.4 2.112 10.624 10.688 19.2 25.6 17.024 42.688a47.68 47.68 0 0 1-42.624 42.624H832c-6.4-6.4-12.8-12.8-14.912-23.424-2.176-8.576-10.688-12.8-17.088-10.688h-2.112c-2.176-8.512-10.688-12.8-17.088-10.688a17.728 17.728 0 0 0-12.8 21.376c8.512 23.424 25.6 42.624 51.2 51.2 14.912 10.624 32 14.912 49.088 14.912a78.592 78.592 0 0 0 74.624-74.688c2.176-38.4-21.312-70.4-53.312-81.024V403.2c0-6.4-2.112-10.688-4.288-17.088h110.976c17.024 0 25.6-14.912 25.6-27.712 2.112-2.112 2.112-4.288 2.112-6.4z m-162.112-76.8c8.512 0 17.024 2.112 23.424 4.288 2.176 2.112 6.4 4.224 8.576 6.4l38.4 32h-473.6v-44.8h403.2V275.2z m-550.4-64V104.512l59.712 108.8h-59.712V211.2z m-53.376 0H157.888l100.224-117.312V211.2z m53.376 64h83.2V320h-83.2v-44.8z m337.024-64H422.4l-64-115.2 290.112 115.2z m-401.024 64V320h-38.4c-2.176 0-6.4 0-8.576 2.112V275.2h46.976z m147.2 454.4v115.2l-64-55.488 64-59.712z m-83.2 4.288v-115.2l61.824 57.6-61.824 57.6z m19.2-149.376l64-59.712v119.488l-64-59.776z m-19.2-53.312V411.712l64 59.776-64 59.712z m34.112 320h-34.112v-29.888l34.112 29.888z m236.8 64l53.312 44.8H172.8l25.6-44.8h384zM394.688 437.312L337.088 384h57.6v53.312zM149.312 362.688h-96V256h96v106.688z" p-id="2773"></path></svg>